<mxfile host="65bd71144e">
    <diagram id="yeq5-F76rDACPt5gvWtq" name="Page-1">
        <mxGraphModel dx="1822" dy="617" grid="1" gridSize="10" guides="1" tooltips="1" connect="1" arrows="1" fold="1" page="1" pageScale="1" pageWidth="850" pageHeight="1100" math="0" shadow="0">
            <root>
                <mxCell id="0"/>
                <mxCell id="1" parent="0"/>
                <mxCell id="2" value="node" style="shape=table;startSize=30;container=1;collapsible=0;childLayout=tableLayout;" vertex="1" parent="1">
                    <mxGeometry x="-310" y="30" width="310" height="110" as="geometry"/>
                </mxCell>
                <mxCell id="3" value="" style="shape=tableRow;horizontal=0;startSize=0;swimlaneHead=0;swimlaneBody=0;top=0;left=0;bottom=0;right=0;collapsible=0;dropTarget=0;fillColor=none;points=[[0,0.5],[1,0.5]];portConstraint=eastwest;" vertex="1" parent="2">
                    <mxGeometry y="30" width="310" height="40" as="geometry"/>
                </mxCell>
                <mxCell id="4" value="/centauro_base_estimation" style="shape=partialRectangle;html=1;whiteSpace=wrap;connectable=0;overflow=hidden;fillColor=none;top=0;left=0;bottom=0;right=0;pointerEvents=1;" vertex="1" parent="3">
                    <mxGeometry width="310" height="40" as="geometry">
                        <mxRectangle width="310" height="40" as="alternateBounds"/>
                    </mxGeometry>
                </mxCell>
                <mxCell id="26" style="shape=tableRow;horizontal=0;startSize=0;swimlaneHead=0;swimlaneBody=0;top=0;left=0;bottom=0;right=0;collapsible=0;dropTarget=0;fillColor=none;points=[[0,0.5],[1,0.5]];portConstraint=eastwest;" vertex="1" parent="2">
                    <mxGeometry y="70" width="310" height="40" as="geometry"/>
                </mxCell>
                <mxCell id="27" value="base_estimation/src/base_estimation_node.cpp" style="shape=partialRectangle;html=1;whiteSpace=wrap;connectable=0;overflow=hidden;fillColor=none;top=0;left=0;bottom=0;right=0;pointerEvents=1;" vertex="1" parent="26">
                    <mxGeometry width="310" height="40" as="geometry">
                        <mxRectangle width="310" height="40" as="alternateBounds"/>
                    </mxGeometry>
                </mxCell>
                <mxCell id="5" value="node" style="shape=table;startSize=30;container=1;collapsible=0;childLayout=tableLayout;" vertex="1" parent="1">
                    <mxGeometry x="-500" y="250" width="500" height="110" as="geometry"/>
                </mxCell>
                <mxCell id="6" value="" style="shape=tableRow;horizontal=0;startSize=0;swimlaneHead=0;swimlaneBody=0;top=0;left=0;bottom=0;right=0;collapsible=0;dropTarget=0;fillColor=none;points=[[0,0.5],[1,0.5]];portConstraint=eastwest;" vertex="1" parent="5">
                    <mxGeometry y="30" width="500" height="40" as="geometry"/>
                </mxCell>
                <mxCell id="7" value="/legged_robot_arm_target1" style="shape=partialRectangle;html=1;whiteSpace=wrap;connectable=0;overflow=hidden;fillColor=none;top=0;left=0;bottom=0;right=0;pointerEvents=1;" vertex="1" parent="6">
                    <mxGeometry width="500" height="40" as="geometry">
                        <mxRectangle width="500" height="40" as="alternateBounds"/>
                    </mxGeometry>
                </mxCell>
                <mxCell id="32" style="shape=tableRow;horizontal=0;startSize=0;swimlaneHead=0;swimlaneBody=0;top=0;left=0;bottom=0;right=0;collapsible=0;dropTarget=0;fillColor=none;points=[[0,0.5],[1,0.5]];portConstraint=eastwest;" vertex="1" parent="5">
                    <mxGeometry y="70" width="500" height="40" as="geometry"/>
                </mxCell>
                <mxCell id="33" value="centauro_whole_body_control/ocs2_centauro_ros/src/LeggedRobotArmTarget.cpp" style="shape=partialRectangle;html=1;whiteSpace=wrap;connectable=0;overflow=hidden;fillColor=none;top=0;left=0;bottom=0;right=0;pointerEvents=1;" vertex="1" parent="32">
                    <mxGeometry width="500" height="40" as="geometry">
                        <mxRectangle width="500" height="40" as="alternateBounds"/>
                    </mxGeometry>
                </mxCell>
                <mxCell id="8" value="node" style="shape=table;startSize=30;container=1;collapsible=0;childLayout=tableLayout;" vertex="1" parent="1">
                    <mxGeometry x="-500" y="360" width="500" height="110" as="geometry"/>
                </mxCell>
                <mxCell id="9" value="" style="shape=tableRow;horizontal=0;startSize=0;swimlaneHead=0;swimlaneBody=0;top=0;left=0;bottom=0;right=0;collapsible=0;dropTarget=0;fillColor=none;points=[[0,0.5],[1,0.5]];portConstraint=eastwest;" vertex="1" parent="8">
                    <mxGeometry y="30" width="500" height="40" as="geometry"/>
                </mxCell>
                <mxCell id="10" value="/legged_robot_arm_target2" style="shape=partialRectangle;html=1;whiteSpace=wrap;connectable=0;overflow=hidden;fillColor=none;top=0;left=0;bottom=0;right=0;pointerEvents=1;" vertex="1" parent="9">
                    <mxGeometry width="500" height="40" as="geometry">
                        <mxRectangle width="500" height="40" as="alternateBounds"/>
                    </mxGeometry>
                </mxCell>
                <mxCell id="34" style="shape=tableRow;horizontal=0;startSize=0;swimlaneHead=0;swimlaneBody=0;top=0;left=0;bottom=0;right=0;collapsible=0;dropTarget=0;fillColor=none;points=[[0,0.5],[1,0.5]];portConstraint=eastwest;" vertex="1" parent="8">
                    <mxGeometry y="70" width="500" height="40" as="geometry"/>
                </mxCell>
                <mxCell id="35" value="centauro_whole_body_control/ocs2_centauro_ros/src/LeggedRobotArmTarget.cpp" style="shape=partialRectangle;html=1;whiteSpace=wrap;connectable=0;overflow=hidden;fillColor=none;top=0;left=0;bottom=0;right=0;pointerEvents=1;" vertex="1" parent="34">
                    <mxGeometry width="500" height="40" as="geometry">
                        <mxRectangle width="500" height="40" as="alternateBounds"/>
                    </mxGeometry>
                </mxCell>
                <mxCell id="11" value="node" style="shape=table;startSize=30;container=1;collapsible=0;childLayout=tableLayout;fillColor=#60a917;fontColor=#ffffff;strokeColor=#2D7600;" vertex="1" parent="1">
                    <mxGeometry x="120" y="250" width="1360" height="110" as="geometry"/>
                </mxCell>
                <mxCell id="12" value="" style="shape=tableRow;horizontal=0;startSize=0;swimlaneHead=0;swimlaneBody=0;top=0;left=0;bottom=0;right=0;collapsible=0;dropTarget=0;fillColor=none;points=[[0,0.5],[1,0.5]];portConstraint=eastwest;" vertex="1" parent="11">
                    <mxGeometry y="30" width="1360" height="40" as="geometry"/>
                </mxCell>
                <mxCell id="13" value="/legged_robot_ddp_mpc" style="shape=partialRectangle;html=1;whiteSpace=wrap;connectable=0;overflow=hidden;fillColor=none;top=0;left=0;bottom=0;right=0;pointerEvents=1;" vertex="1" parent="12">
                    <mxGeometry width="1360" height="40" as="geometry">
                        <mxRectangle width="1360" height="40" as="alternateBounds"/>
                    </mxGeometry>
                </mxCell>
                <mxCell id="28" style="shape=tableRow;horizontal=0;startSize=0;swimlaneHead=0;swimlaneBody=0;top=0;left=0;bottom=0;right=0;collapsible=0;dropTarget=0;fillColor=none;points=[[0,0.5],[1,0.5]];portConstraint=eastwest;" vertex="1" parent="11">
                    <mxGeometry y="70" width="1360" height="40" as="geometry"/>
                </mxCell>
                <mxCell id="29" value="centauro_whole_body_control/ocs2_centauro_ros/src/CentauroDdpMpcNode.cpp" style="shape=partialRectangle;html=1;whiteSpace=wrap;connectable=0;overflow=hidden;fillColor=none;top=0;left=0;bottom=0;right=0;pointerEvents=1;" vertex="1" parent="28">
                    <mxGeometry width="1360" height="40" as="geometry">
                        <mxRectangle width="1360" height="40" as="alternateBounds"/>
                    </mxGeometry>
                </mxCell>
                <mxCell id="14" value="node" style="shape=table;startSize=30;container=1;collapsible=0;childLayout=tableLayout;fillColor=#60a917;fontColor=#ffffff;strokeColor=#2D7600;" vertex="1" parent="1">
                    <mxGeometry x="-520" y="830" width="520" height="110" as="geometry"/>
                </mxCell>
                <mxCell id="15" value="" style="shape=tableRow;horizontal=0;startSize=0;swimlaneHead=0;swimlaneBody=0;top=0;left=0;bottom=0;right=0;collapsible=0;dropTarget=0;fillColor=none;points=[[0,0.5],[1,0.5]];portConstraint=eastwest;" vertex="1" parent="14">
                    <mxGeometry y="30" width="520" height="40" as="geometry"/>
                </mxCell>
                <mxCell id="16" value="/legged_robot_dummy" style="shape=partialRectangle;html=1;whiteSpace=wrap;connectable=0;overflow=hidden;fillColor=none;top=0;left=0;bottom=0;right=0;pointerEvents=1;" vertex="1" parent="15">
                    <mxGeometry width="520" height="40" as="geometry">
                        <mxRectangle width="520" height="40" as="alternateBounds"/>
                    </mxGeometry>
                </mxCell>
                <mxCell id="30" style="shape=tableRow;horizontal=0;startSize=0;swimlaneHead=0;swimlaneBody=0;top=0;left=0;bottom=0;right=0;collapsible=0;dropTarget=0;fillColor=none;points=[[0,0.5],[1,0.5]];portConstraint=eastwest;" vertex="1" parent="14">
                    <mxGeometry y="70" width="520" height="40" as="geometry"/>
                </mxCell>
                <mxCell id="31" value="centauro_whole_body_control/ocs2_centauro_ros/src/LeggedRobotDummyNode.cpp" style="shape=partialRectangle;html=1;whiteSpace=wrap;connectable=0;overflow=hidden;fillColor=none;top=0;left=0;bottom=0;right=0;pointerEvents=1;" vertex="1" parent="30">
                    <mxGeometry width="520" height="40" as="geometry">
                        <mxRectangle width="520" height="40" as="alternateBounds"/>
                    </mxGeometry>
                </mxCell>
                <mxCell id="17" value="node" style="shape=table;startSize=30;container=1;collapsible=0;childLayout=tableLayout;" vertex="1" parent="1">
                    <mxGeometry x="-500" y="540" width="500" height="110" as="geometry"/>
                </mxCell>
                <mxCell id="18" value="" style="shape=tableRow;horizontal=0;startSize=0;swimlaneHead=0;swimlaneBody=0;top=0;left=0;bottom=0;right=0;collapsible=0;dropTarget=0;fillColor=none;points=[[0,0.5],[1,0.5]];portConstraint=eastwest;" vertex="1" parent="17">
                    <mxGeometry y="30" width="500" height="40" as="geometry"/>
                </mxCell>
                <mxCell id="19" value="/legged_robot_gait_command" style="shape=partialRectangle;html=1;whiteSpace=wrap;connectable=0;overflow=hidden;fillColor=none;top=0;left=0;bottom=0;right=0;pointerEvents=1;" vertex="1" parent="18">
                    <mxGeometry width="500" height="40" as="geometry">
                        <mxRectangle width="500" height="40" as="alternateBounds"/>
                    </mxGeometry>
                </mxCell>
                <mxCell id="36" style="shape=tableRow;horizontal=0;startSize=0;swimlaneHead=0;swimlaneBody=0;top=0;left=0;bottom=0;right=0;collapsible=0;dropTarget=0;fillColor=none;points=[[0,0.5],[1,0.5]];portConstraint=eastwest;" vertex="1" parent="17">
                    <mxGeometry y="70" width="500" height="40" as="geometry"/>
                </mxCell>
                <mxCell id="37" value="centauro_whole_body_control/ocs2_centauro_ros/src/LeggedRobotGaitCommandNode.cpp" style="shape=partialRectangle;html=1;whiteSpace=wrap;connectable=0;overflow=hidden;fillColor=none;top=0;left=0;bottom=0;right=0;pointerEvents=1;" vertex="1" parent="36">
                    <mxGeometry width="500" height="40" as="geometry">
                        <mxRectangle width="500" height="40" as="alternateBounds"/>
                    </mxGeometry>
                </mxCell>
                <mxCell id="20" value="node" style="shape=table;startSize=30;container=1;collapsible=0;childLayout=tableLayout;" vertex="1" parent="1">
                    <mxGeometry x="-500" y="650" width="500" height="110" as="geometry"/>
                </mxCell>
                <mxCell id="21" value="" style="shape=tableRow;horizontal=0;startSize=0;swimlaneHead=0;swimlaneBody=0;top=0;left=0;bottom=0;right=0;collapsible=0;dropTarget=0;fillColor=none;points=[[0,0.5],[1,0.5]];portConstraint=eastwest;" vertex="1" parent="20">
                    <mxGeometry y="30" width="500" height="40" as="geometry"/>
                </mxCell>
                <mxCell id="22" value="/legged_robot_target" style="shape=partialRectangle;html=1;whiteSpace=wrap;connectable=0;overflow=hidden;fillColor=none;top=0;left=0;bottom=0;right=0;pointerEvents=1;" vertex="1" parent="21">
                    <mxGeometry width="500" height="40" as="geometry">
                        <mxRectangle width="500" height="40" as="alternateBounds"/>
                    </mxGeometry>
                </mxCell>
                <mxCell id="38" style="shape=tableRow;horizontal=0;startSize=0;swimlaneHead=0;swimlaneBody=0;top=0;left=0;bottom=0;right=0;collapsible=0;dropTarget=0;fillColor=none;points=[[0,0.5],[1,0.5]];portConstraint=eastwest;" vertex="1" parent="20">
                    <mxGeometry y="70" width="500" height="40" as="geometry"/>
                </mxCell>
                <mxCell id="39" value="centauro_whole_body_control/ocs2_centauro_ros/src/LeggedRobotPoseCommandNode.cpp" style="shape=partialRectangle;html=1;whiteSpace=wrap;connectable=0;overflow=hidden;fillColor=none;top=0;left=0;bottom=0;right=0;pointerEvents=1;" vertex="1" parent="38">
                    <mxGeometry width="500" height="40" as="geometry">
                        <mxRectangle width="500" height="40" as="alternateBounds"/>
                    </mxGeometry>
                </mxCell>
                <mxCell id="23" value="node" style="shape=table;startSize=30;container=1;collapsible=0;childLayout=tableLayout;" vertex="1" parent="1">
                    <mxGeometry x="-520" y="30" width="210" height="70" as="geometry"/>
                </mxCell>
                <mxCell id="24" value="" style="shape=tableRow;horizontal=0;startSize=0;swimlaneHead=0;swimlaneBody=0;top=0;left=0;bottom=0;right=0;collapsible=0;dropTarget=0;fillColor=none;points=[[0,0.5],[1,0.5]];portConstraint=eastwest;" vertex="1" parent="23">
                    <mxGeometry y="30" width="210" height="40" as="geometry"/>
                </mxCell>
                <mxCell id="25" value="/xbotcore" style="shape=partialRectangle;html=1;whiteSpace=wrap;connectable=0;overflow=hidden;fillColor=none;top=0;left=0;bottom=0;right=0;pointerEvents=1;" vertex="1" parent="24">
                    <mxGeometry width="210" height="40" as="geometry">
                        <mxRectangle width="210" height="40" as="alternateBounds"/>
                    </mxGeometry>
                </mxCell>
                <mxCell id="67" value="source :&amp;nbsp;&lt;span style=&quot;font-family: &amp;quot;Droid Sans Mono&amp;quot;, &amp;quot;monospace&amp;quot;, monospace; font-size: 14px; font-weight: 400; color: rgb(78, 201, 176);&quot;&gt;LeggedRobotInterface&lt;/span&gt;&lt;span style=&quot;color: rgb(218, 218, 218); font-family: &amp;quot;Droid Sans Mono&amp;quot;, &amp;quot;monospace&amp;quot;, monospace; font-size: 14px; font-weight: 400; background-color: rgb(30, 30, 30);&quot;&gt;&amp;nbsp;&lt;/span&gt;&lt;span style=&quot;font-family: &amp;quot;Droid Sans Mono&amp;quot;, &amp;quot;monospace&amp;quot;, monospace; font-size: 14px; font-weight: 400; color: rgb(156, 220, 254);&quot;&gt;interface&lt;/span&gt;&lt;span style=&quot;font-family: &amp;quot;Droid Sans Mono&amp;quot;, &amp;quot;monospace&amp;quot;, monospace; font-size: 14px; font-weight: 400; color: rgb(180, 180, 180);&quot;&gt;(&lt;/span&gt;&lt;span style=&quot;font-family: &amp;quot;Droid Sans Mono&amp;quot;, &amp;quot;monospace&amp;quot;, monospace; font-size: 14px; font-weight: 400; color: rgb(156, 220, 254);&quot;&gt;taskFile&lt;/span&gt;&lt;span style=&quot;font-family: &amp;quot;Droid Sans Mono&amp;quot;, &amp;quot;monospace&amp;quot;, monospace; font-size: 14px; font-weight: 400; color: rgb(180, 180, 180);&quot;&gt;,&lt;/span&gt;&lt;span style=&quot;color: rgb(218, 218, 218); font-family: &amp;quot;Droid Sans Mono&amp;quot;, &amp;quot;monospace&amp;quot;, monospace; font-size: 14px; font-weight: 400; background-color: rgb(30, 30, 30);&quot;&gt;&amp;nbsp;&lt;/span&gt;&lt;span style=&quot;font-family: &amp;quot;Droid Sans Mono&amp;quot;, &amp;quot;monospace&amp;quot;, monospace; font-size: 14px; font-weight: 400; color: rgb(156, 220, 254);&quot;&gt;urdfFile&lt;/span&gt;&lt;span style=&quot;font-family: &amp;quot;Droid Sans Mono&amp;quot;, &amp;quot;monospace&amp;quot;, monospace; font-size: 14px; font-weight: 400; color: rgb(180, 180, 180);&quot;&gt;,&lt;/span&gt;&lt;span style=&quot;color: rgb(218, 218, 218); font-family: &amp;quot;Droid Sans Mono&amp;quot;, &amp;quot;monospace&amp;quot;, monospace; font-size: 14px; font-weight: 400; background-color: rgb(30, 30, 30);&quot;&gt;&amp;nbsp;&lt;/span&gt;&lt;span style=&quot;font-family: &amp;quot;Droid Sans Mono&amp;quot;, &amp;quot;monospace&amp;quot;, monospace; font-size: 14px; font-weight: 400; color: rgb(156, 220, 254);&quot;&gt;referenceFile&lt;/span&gt;&lt;span style=&quot;font-family: &amp;quot;Droid Sans Mono&amp;quot;, &amp;quot;monospace&amp;quot;, monospace; font-size: 14px; font-weight: 400; color: rgb(180, 180, 180);&quot;&gt;);&lt;/span&gt;" style="swimlane;whiteSpace=wrap;html=1;fontColor=#00FF00;" vertex="1" parent="1">
                    <mxGeometry x="260" y="370" width="1365" height="1490" as="geometry"/>
                </mxCell>
                <mxCell id="68" value="&lt;div style=&quot;color: rgb(218, 218, 218); background-color: rgb(30, 30, 30); font-family: &amp;quot;Droid Sans Mono&amp;quot;, &amp;quot;monospace&amp;quot;, monospace; font-size: 14px; line-height: 19px;&quot;&gt;&lt;br&gt;&lt;/div&gt;" style="text;html=1;align=center;verticalAlign=middle;resizable=0;points=[];autosize=1;strokeColor=none;fillColor=none;fontColor=#00FF00;" vertex="1" parent="67">
                    <mxGeometry x="280" y="60" width="20" height="30" as="geometry"/>
                </mxCell>
                <mxCell id="85" value="&lt;font color=&quot;#ffffff&quot;&gt;1. Check files and load parameters: model, ddp, mpc, rollout, sqp&lt;/font&gt;" style="text;html=1;align=center;verticalAlign=middle;resizable=0;points=[];autosize=1;strokeColor=none;fillColor=none;fontColor=#00FF00;" vertex="1" parent="67">
                    <mxGeometry x="30" y="80" width="370" height="30" as="geometry"/>
                </mxCell>
                <mxCell id="86" value="&lt;font color=&quot;#ffffff&quot;&gt;2.&amp;nbsp;&lt;span style=&quot;background-color: rgb(30, 30, 30); font-family: &amp;quot;Droid Sans Mono&amp;quot;, &amp;quot;monospace&amp;quot;, monospace; font-size: 14px;&quot;&gt;  &lt;/span&gt;&lt;/font&gt;&lt;span style=&quot;font-family: &amp;quot;Droid Sans Mono&amp;quot;, &amp;quot;monospace&amp;quot;, monospace; font-size: 14px; color: rgb(220, 220, 170);&quot;&gt;setupOptimalConrolProblem&lt;/span&gt;&lt;span style=&quot;font-family: &amp;quot;Droid Sans Mono&amp;quot;, &amp;quot;monospace&amp;quot;, monospace; font-size: 14px; color: rgb(180, 180, 180);&quot;&gt;(&lt;/span&gt;&lt;span style=&quot;font-family: &amp;quot;Droid Sans Mono&amp;quot;, &amp;quot;monospace&amp;quot;, monospace; font-size: 14px; color: rgb(154, 154, 154);&quot;&gt;taskFile&lt;/span&gt;&lt;span style=&quot;font-family: &amp;quot;Droid Sans Mono&amp;quot;, &amp;quot;monospace&amp;quot;, monospace; font-size: 14px; color: rgb(180, 180, 180);&quot;&gt;,&lt;/span&gt;&lt;span style=&quot;background-color: rgb(30, 30, 30); color: rgb(218, 218, 218); font-family: &amp;quot;Droid Sans Mono&amp;quot;, &amp;quot;monospace&amp;quot;, monospace; font-size: 14px;&quot;&gt; &lt;/span&gt;&lt;span style=&quot;font-family: &amp;quot;Droid Sans Mono&amp;quot;, &amp;quot;monospace&amp;quot;, monospace; font-size: 14px; color: rgb(154, 154, 154);&quot;&gt;urdfFile&lt;/span&gt;&lt;span style=&quot;font-family: &amp;quot;Droid Sans Mono&amp;quot;, &amp;quot;monospace&amp;quot;, monospace; font-size: 14px; color: rgb(180, 180, 180);&quot;&gt;,&lt;/span&gt;&lt;span style=&quot;background-color: rgb(30, 30, 30); color: rgb(218, 218, 218); font-family: &amp;quot;Droid Sans Mono&amp;quot;, &amp;quot;monospace&amp;quot;, monospace; font-size: 14px;&quot;&gt; &lt;/span&gt;&lt;span style=&quot;font-family: &amp;quot;Droid Sans Mono&amp;quot;, &amp;quot;monospace&amp;quot;, monospace; font-size: 14px; color: rgb(154, 154, 154);&quot;&gt;referenceFile&lt;/span&gt;&lt;span style=&quot;font-family: &amp;quot;Droid Sans Mono&amp;quot;, &amp;quot;monospace&amp;quot;, monospace; font-size: 14px; color: rgb(180, 180, 180);&quot;&gt;,&lt;/span&gt;&lt;span style=&quot;background-color: rgb(30, 30, 30); color: rgb(218, 218, 218); font-family: &amp;quot;Droid Sans Mono&amp;quot;, &amp;quot;monospace&amp;quot;, monospace; font-size: 14px;&quot;&gt; &lt;/span&gt;&lt;span style=&quot;font-family: &amp;quot;Droid Sans Mono&amp;quot;, &amp;quot;monospace&amp;quot;, monospace; font-size: 14px; color: rgb(156, 220, 254);&quot;&gt;verbose&lt;/span&gt;&lt;span style=&quot;font-family: &amp;quot;Droid Sans Mono&amp;quot;, &amp;quot;monospace&amp;quot;, monospace; font-size: 14px;&quot;&gt;&lt;font color=&quot;#b4b4b4&quot;&gt;);&lt;/font&gt;&lt;br&gt;&lt;font color=&quot;#ffffff&quot;&gt;targetFramesNames = arm1_8; dagana_2_tcp&lt;/font&gt;&lt;br&gt;Member1: &lt;font color=&quot;#ffffff&quot;&gt;pinocchioInterfacePtr_&lt;br&gt;&lt;/font&gt;&lt;/span&gt;&lt;span style=&quot;font-family: &amp;quot;Droid Sans Mono&amp;quot;, &amp;quot;monospace&amp;quot;, monospace; font-size: 14px;&quot;&gt;Member2:&amp;nbsp;&lt;/span&gt;&lt;span style=&quot;color: rgb(255, 255, 255); background-color: rgb(30, 30, 30); font-family: &amp;quot;Droid Sans Mono&amp;quot;, &amp;quot;monospace&amp;quot;, monospace; font-size: 14px;&quot;&gt;centroidalModelInfo_&lt;/span&gt;&lt;span style=&quot;font-family: &amp;quot;Droid Sans Mono&amp;quot;, &amp;quot;monospace&amp;quot;, monospace; font-size: 14px;&quot;&gt;&lt;br&gt;&lt;/span&gt;&lt;div style=&quot;background-color: rgb(30, 30, 30); font-family: &amp;quot;Droid Sans Mono&amp;quot;, &amp;quot;monospace&amp;quot;, monospace; font-size: 14px; line-height: 19px;&quot;&gt;&lt;div style=&quot;line-height: 19px;&quot;&gt;&lt;font color=&quot;#ffffff&quot;&gt;SwingTrajectoryPlanner&lt;/font&gt;&lt;/div&gt;&lt;div style=&quot;line-height: 19px;&quot;&gt;&lt;font color=&quot;#ffffff&quot;&gt;armEeSoftConstraints.activate = false&lt;/font&gt;&lt;/div&gt;&lt;div style=&quot;line-height: 19px;&quot;&gt;&lt;font color=&quot;#ffffff&quot;&gt;armEeHardConstraints = false&lt;/font&gt;&lt;/div&gt;&lt;div style=&quot;line-height: 19px;&quot;&gt;&lt;font color=&quot;#ffffff&quot;&gt;ForceTorqueSensing&lt;/font&gt;&lt;/div&gt;&lt;div style=&quot;line-height: 19px;&quot;&gt;Member3:&amp;nbsp;&lt;font color=&quot;#ffffff&quot;&gt;referenceManagerPtr_&lt;/font&gt;&lt;/div&gt;&lt;div style=&quot;line-height: 19px;&quot;&gt;Member4:&lt;font color=&quot;#ffffff&quot;&gt;&amp;nbsp;problemPtr_&lt;/font&gt;&lt;/div&gt;&lt;div style=&quot;line-height: 19px;&quot;&gt;Member5:&lt;font color=&quot;#ffffff&quot;&gt;&amp;nbsp;dynamicsPtr&lt;/font&gt;&lt;/div&gt;&lt;/div&gt;" style="text;html=1;align=left;verticalAlign=middle;resizable=0;points=[];autosize=1;strokeColor=none;fillColor=none;fontColor=#00FF00;" vertex="1" parent="67">
                    <mxGeometry x="40" y="110" width="640" height="210" as="geometry"/>
                </mxCell>
                <mxCell id="87" value="&lt;div style=&quot;text-align: left;&quot;&gt;&lt;span style=&quot;color: rgb(255, 255, 255); background-color: initial;&quot;&gt;3. Initialize dynamicsPtr&lt;/span&gt;&lt;/div&gt;&lt;span style=&quot;color: rgb(218, 218, 218); font-family: &amp;quot;Droid Sans Mono&amp;quot;, &amp;quot;monospace&amp;quot;, monospace; font-size: 14px; background-color: rgb(30, 30, 30);&quot;&gt;&lt;div style=&quot;text-align: left;&quot;&gt;problemPtr_&lt;span style=&quot;background-color: initial; color: rgb(180, 180, 180);&quot;&gt;-&amp;gt;&lt;/span&gt;dynamicsPtr&amp;nbsp;&lt;span style=&quot;background-color: initial; color: rgb(180, 180, 180);&quot;&gt;=&lt;/span&gt;&amp;nbsp;&lt;span style=&quot;background-color: initial; color: rgb(200, 200, 200);&quot;&gt;std&lt;/span&gt;&lt;span style=&quot;background-color: initial; color: rgb(180, 180, 180);&quot;&gt;::&lt;/span&gt;&lt;span style=&quot;background-color: initial; color: rgb(220, 220, 170);&quot;&gt;move&lt;/span&gt;&lt;span style=&quot;background-color: initial; color: rgb(180, 180, 180);&quot;&gt;(&lt;/span&gt;&lt;span style=&quot;background-color: initial; color: rgb(156, 220, 254);&quot;&gt;dynamicsPtr&lt;/span&gt;&lt;span style=&quot;background-color: initial; color: rgb(180, 180, 180);&quot;&gt;);&lt;/span&gt;&lt;/div&gt;&lt;/span&gt;&lt;div style=&quot;text-align: left; color: rgb(218, 218, 218); background-color: rgb(30, 30, 30); font-family: &amp;quot;Droid Sans Mono&amp;quot;, &amp;quot;monospace&amp;quot;, monospace; font-size: 14px; line-height: 19px;&quot;&gt;problemPtr_&lt;span style=&quot;color: #b4b4b4;&quot;&gt;-&amp;gt;&lt;/span&gt;&lt;span style=&quot;color: #9cdcfe;&quot;&gt;costPtr&lt;/span&gt;&lt;span style=&quot;color: #b4b4b4;&quot;&gt;-&amp;gt;&lt;/span&gt;&lt;span style=&quot;color: #dcdcaa;&quot;&gt;add&lt;/span&gt;&lt;span style=&quot;color: #b4b4b4;&quot;&gt;(&lt;/span&gt;&lt;span style=&quot;color: #e8c9bb;&quot;&gt;&quot;&lt;/span&gt;&lt;span style=&quot;color: #ce9178;&quot;&gt;fullInputCost&lt;/span&gt;&lt;span style=&quot;color: #e8c9bb;&quot;&gt;&quot;&lt;/span&gt;&lt;span style=&quot;color: #b4b4b4;&quot;&gt;,&lt;/span&gt; &lt;span style=&quot;color: #dcdcaa;&quot;&gt;getFullInputCost&lt;/span&gt;&lt;span style=&quot;color: #b4b4b4;&quot;&gt;(&lt;/span&gt;&lt;span style=&quot;color: #9a9a9a;&quot;&gt;taskFile&lt;/span&gt;&lt;span style=&quot;color: #b4b4b4;&quot;&gt;,&lt;/span&gt; centroidalModelInfo_&lt;span style=&quot;color: #b4b4b4;&quot;&gt;,&lt;/span&gt; &lt;span style=&quot;color: #569cd6;&quot;&gt;false&lt;/span&gt;&lt;span style=&quot;color: #b4b4b4;&quot;&gt;));&lt;/span&gt;&lt;/div&gt;&lt;div style=&quot;text-align: left; color: rgb(218, 218, 218); background-color: rgb(30, 30, 30); font-family: &amp;quot;Droid Sans Mono&amp;quot;, &amp;quot;monospace&amp;quot;, monospace; font-size: 14px; line-height: 19px;&quot;&gt;&lt;div style=&quot;line-height: 19px;&quot;&gt;&lt;span style=&quot;color: #c8c8c8;&quot;&gt;&lt;span style=&quot;white-space: pre;&quot;&gt;&#9;&lt;/span&gt;std&lt;/span&gt;&lt;span style=&quot;color: #b4b4b4;&quot;&gt;::&lt;/span&gt;&lt;span style=&quot;color: #4ec9b0;&quot;&gt;unique_ptr&lt;/span&gt;&lt;span style=&quot;color: #b4b4b4;&quot;&gt;&amp;lt;&lt;/span&gt;&lt;span style=&quot;color: #4ec9b0;&quot;&gt;StateInputCostCollection&lt;/span&gt;&lt;span style=&quot;color: #b4b4b4;&quot;&gt;&amp;gt;&lt;/span&gt; costPtr&lt;span style=&quot;color: #b4b4b4;&quot;&gt;;&lt;/span&gt;&lt;/div&gt;&lt;/div&gt;" style="text;html=1;align=center;verticalAlign=middle;resizable=0;points=[];autosize=1;strokeColor=none;fillColor=none;fontColor=#00FF00;" vertex="1" parent="67">
                    <mxGeometry x="30" y="330" width="870" height="80" as="geometry"/>
                </mxCell>
                <mxCell id="88" value="costPtr" style="shape=table;startSize=30;container=1;collapsible=0;childLayout=tableLayout;fontColor=#FFFFFF;" vertex="1" parent="67">
                    <mxGeometry x="40" y="420" width="920" height="150" as="geometry"/>
                </mxCell>
                <mxCell id="97" style="shape=tableRow;horizontal=0;startSize=0;swimlaneHead=0;swimlaneBody=0;top=0;left=0;bottom=0;right=0;collapsible=0;dropTarget=0;fillColor=none;points=[[0,0.5],[1,0.5]];portConstraint=eastwest;fontColor=#FFFFFF;" vertex="1" parent="88">
                    <mxGeometry y="30" width="920" height="40" as="geometry"/>
                </mxCell>
                <mxCell id="98" value="1" style="shape=partialRectangle;html=1;whiteSpace=wrap;connectable=0;overflow=hidden;fillColor=none;top=0;left=0;bottom=0;right=0;pointerEvents=1;fontColor=#FFFFFF;" vertex="1" parent="97">
                    <mxGeometry width="460" height="40" as="geometry">
                        <mxRectangle width="460" height="40" as="alternateBounds"/>
                    </mxGeometry>
                </mxCell>
                <mxCell id="99" value="2" style="shape=partialRectangle;html=1;whiteSpace=wrap;connectable=0;overflow=hidden;fillColor=none;top=0;left=0;bottom=0;right=0;pointerEvents=1;fontColor=#FFFFFF;" vertex="1" parent="97">
                    <mxGeometry x="460" width="460" height="40" as="geometry">
                        <mxRectangle width="460" height="40" as="alternateBounds"/>
                    </mxGeometry>
                </mxCell>
                <mxCell id="89" value="" style="shape=tableRow;horizontal=0;startSize=0;swimlaneHead=0;swimlaneBody=0;top=0;left=0;bottom=0;right=0;collapsible=0;dropTarget=0;fillColor=none;points=[[0,0.5],[1,0.5]];portConstraint=eastwest;fontColor=#FFFFFF;" vertex="1" parent="88">
                    <mxGeometry y="70" width="920" height="40" as="geometry"/>
                </mxCell>
                <mxCell id="92" value="&lt;div style=&quot;color: rgb(218, 218, 218); background-color: rgb(30, 30, 30); font-family: &amp;quot;Droid Sans Mono&amp;quot;, &amp;quot;monospace&amp;quot;, monospace; font-size: 14px; line-height: 19px;&quot;&gt;&lt;span style=&quot;color: #ce9178;&quot;&gt;fullInputCost&lt;/span&gt;&lt;/div&gt;" style="shape=partialRectangle;html=1;whiteSpace=wrap;connectable=0;overflow=hidden;fillColor=none;top=0;left=0;bottom=0;right=0;pointerEvents=1;fontColor=#FFFFFF;" vertex="1" parent="89">
                    <mxGeometry width="460" height="40" as="geometry">
                        <mxRectangle width="460" height="40" as="alternateBounds"/>
                    </mxGeometry>
                </mxCell>
                <mxCell id="90" value="&lt;div style=&quot;background-color: rgb(30, 30, 30); font-family: &amp;quot;Droid Sans Mono&amp;quot;, &amp;quot;monospace&amp;quot;, monospace; font-size: 14px; line-height: 19px; color: rgb(218, 218, 218);&quot;&gt;&lt;br&gt;&lt;/div&gt;" style="shape=partialRectangle;html=1;whiteSpace=wrap;connectable=0;overflow=hidden;fillColor=none;top=0;left=0;bottom=0;right=0;pointerEvents=1;fontColor=#FFFFFF;" vertex="1" parent="89">
                    <mxGeometry x="460" width="460" height="40" as="geometry">
                        <mxRectangle width="460" height="40" as="alternateBounds"/>
                    </mxGeometry>
                </mxCell>
                <mxCell id="93" style="shape=tableRow;horizontal=0;startSize=0;swimlaneHead=0;swimlaneBody=0;top=0;left=0;bottom=0;right=0;collapsible=0;dropTarget=0;fillColor=none;points=[[0,0.5],[1,0.5]];portConstraint=eastwest;fontColor=#FFFFFF;" vertex="1" parent="88">
                    <mxGeometry y="110" width="920" height="40" as="geometry"/>
                </mxCell>
                <mxCell id="94" value="&lt;span style=&quot;font-family: &amp;quot;Droid Sans Mono&amp;quot;, &amp;quot;monospace&amp;quot;, monospace; font-size: 14px; color: rgb(220, 220, 170);&quot;&gt;getFullInputCost&lt;/span&gt;&lt;span style=&quot;font-family: &amp;quot;Droid Sans Mono&amp;quot;, &amp;quot;monospace&amp;quot;, monospace; font-size: 14px; color: rgb(180, 180, 180);&quot;&gt;(&lt;/span&gt;&lt;span style=&quot;font-family: &amp;quot;Droid Sans Mono&amp;quot;, &amp;quot;monospace&amp;quot;, monospace; font-size: 14px; color: rgb(154, 154, 154);&quot;&gt;taskFile&lt;/span&gt;&lt;span style=&quot;font-family: &amp;quot;Droid Sans Mono&amp;quot;, &amp;quot;monospace&amp;quot;, monospace; font-size: 14px; color: rgb(180, 180, 180);&quot;&gt;,&lt;/span&gt;&lt;span style=&quot;color: rgb(218, 218, 218); font-family: &amp;quot;Droid Sans Mono&amp;quot;, &amp;quot;monospace&amp;quot;, monospace; font-size: 14px; background-color: rgb(30, 30, 30);&quot;&gt;&amp;nbsp;centroidalModelInfo_&lt;/span&gt;&lt;span style=&quot;font-family: &amp;quot;Droid Sans Mono&amp;quot;, &amp;quot;monospace&amp;quot;, monospace; font-size: 14px; color: rgb(180, 180, 180);&quot;&gt;,&lt;/span&gt;&lt;span style=&quot;font-family: &amp;quot;Droid Sans Mono&amp;quot;, &amp;quot;monospace&amp;quot;, monospace; font-size: 14px; color: rgb(86, 156, 214);&quot;&gt;false&lt;/span&gt;&lt;span style=&quot;font-family: &amp;quot;Droid Sans Mono&amp;quot;, &amp;quot;monospace&amp;quot;, monospace; font-size: 14px; color: rgb(180, 180, 180);&quot;&gt;)&lt;/span&gt;" style="shape=partialRectangle;html=1;whiteSpace=wrap;connectable=0;overflow=hidden;fillColor=none;top=0;left=0;bottom=0;right=0;pointerEvents=1;fontColor=#FFFFFF;" vertex="1" parent="93">
                    <mxGeometry width="460" height="40" as="geometry">
                        <mxRectangle width="460" height="40" as="alternateBounds"/>
                    </mxGeometry>
                </mxCell>
                <mxCell id="95" style="shape=partialRectangle;html=1;whiteSpace=wrap;connectable=0;overflow=hidden;fillColor=none;top=0;left=0;bottom=0;right=0;pointerEvents=1;fontColor=#FFFFFF;" vertex="1" parent="93">
                    <mxGeometry x="460" width="460" height="40" as="geometry">
                        <mxRectangle width="460" height="40" as="alternateBounds"/>
                    </mxGeometry>
                </mxCell>
                <mxCell id="100" value="&lt;span style=&quot;font-weight: 400; font-family: &amp;quot;Droid Sans Mono&amp;quot;, &amp;quot;monospace&amp;quot;, monospace; font-size: 14px; color: rgb(220, 220, 170);&quot;&gt;getFullInputCost&lt;/span&gt;&lt;span style=&quot;font-weight: 400; font-family: &amp;quot;Droid Sans Mono&amp;quot;, &amp;quot;monospace&amp;quot;, monospace; font-size: 14px; color: rgb(180, 180, 180);&quot;&gt;(&lt;/span&gt;&lt;span style=&quot;font-weight: 400; font-family: &amp;quot;Droid Sans Mono&amp;quot;, &amp;quot;monospace&amp;quot;, monospace; font-size: 14px; color: rgb(154, 154, 154);&quot;&gt;taskFile&lt;/span&gt;&lt;span style=&quot;font-weight: 400; font-family: &amp;quot;Droid Sans Mono&amp;quot;, &amp;quot;monospace&amp;quot;, monospace; font-size: 14px; color: rgb(180, 180, 180);&quot;&gt;,&lt;/span&gt;&lt;span style=&quot;font-weight: 400; color: rgb(218, 218, 218); font-family: &amp;quot;Droid Sans Mono&amp;quot;, &amp;quot;monospace&amp;quot;, monospace; font-size: 14px; background-color: rgb(30, 30, 30);&quot;&gt;&amp;nbsp;centroidalModelInfo_&lt;/span&gt;&lt;span style=&quot;font-weight: 400; font-family: &amp;quot;Droid Sans Mono&amp;quot;, &amp;quot;monospace&amp;quot;, monospace; font-size: 14px; color: rgb(180, 180, 180);&quot;&gt;,&lt;/span&gt;&lt;span style=&quot;font-weight: 400; font-family: &amp;quot;Droid Sans Mono&amp;quot;, &amp;quot;monospace&amp;quot;, monospace; font-size: 14px; color: rgb(86, 156, 214);&quot;&gt;false&lt;/span&gt;&lt;span style=&quot;font-weight: 400; font-family: &amp;quot;Droid Sans Mono&amp;quot;, &amp;quot;monospace&amp;quot;, monospace; font-size: 14px; color: rgb(180, 180, 180);&quot;&gt;)&lt;/span&gt;" style="swimlane;whiteSpace=wrap;html=1;fontColor=#FFFFFF;" vertex="1" parent="67">
                    <mxGeometry x="40" y="570" width="460" height="210" as="geometry"/>
                </mxCell>
                <mxCell id="107" value="&lt;div style=&quot;color: rgb(218, 218, 218); background-color: rgb(30, 30, 30); font-family: &amp;quot;Droid Sans Mono&amp;quot;, &amp;quot;monospace&amp;quot;, monospace; font-size: 14px; line-height: 19px;&quot;&gt;&lt;span style=&quot;color: #4ec9b0;&quot;&gt;matrix_t&lt;/span&gt; &lt;span style=&quot;color: #9cdcfe;&quot;&gt;Q&lt;/span&gt;&lt;span style=&quot;color: #b4b4b4;&quot;&gt;(&lt;/span&gt;&lt;span style=&quot;color: #9a9a9a;&quot;&gt;info&lt;/span&gt;&lt;span style=&quot;color: #b4b4b4;&quot;&gt;.&lt;/span&gt;stateDim&lt;span style=&quot;color: #b4b4b4;&quot;&gt;,&lt;/span&gt; &lt;span style=&quot;color: #9a9a9a;&quot;&gt;info&lt;/span&gt;&lt;span style=&quot;color: #b4b4b4;&quot;&gt;.&lt;/span&gt;stateDim&lt;span style=&quot;color: #b4b4b4;&quot;&gt;);&lt;/span&gt;&lt;/div&gt;&lt;div style=&quot;color: rgb(218, 218, 218); background-color: rgb(30, 30, 30); font-family: &amp;quot;Droid Sans Mono&amp;quot;, &amp;quot;monospace&amp;quot;, monospace; font-size: 14px; line-height: 19px;&quot;&gt;&lt;div style=&quot;line-height: 19px;&quot;&gt;&lt;span style=&quot;color: #4ec9b0;&quot;&gt;matrix_t&lt;/span&gt; &lt;span style=&quot;color: #9cdcfe;&quot;&gt;R&lt;/span&gt; &lt;span style=&quot;color: #b4b4b4;&quot;&gt;=&lt;/span&gt; &lt;span style=&quot;color: #dcdcaa;&quot;&gt;initializeFullInputCostWeight&lt;/span&gt;&lt;/div&gt;&lt;div style=&quot;line-height: 19px;&quot;&gt;&lt;span style=&quot;color: #b4b4b4;&quot;&gt;(&lt;/span&gt;&lt;span style=&quot;color: #9a9a9a;&quot;&gt;taskFile&lt;/span&gt;&lt;span style=&quot;color: #b4b4b4;&quot;&gt;,&lt;/span&gt; &lt;span style=&quot;color: #9a9a9a;&quot;&gt;info&lt;/span&gt;&lt;span style=&quot;color: #b4b4b4;&quot;&gt;);&lt;/span&gt;&lt;/div&gt;&lt;/div&gt;" style="text;html=1;align=left;verticalAlign=middle;resizable=0;points=[];autosize=1;strokeColor=none;fillColor=none;fontColor=#FFFFFF;" vertex="1" parent="100">
                    <mxGeometry y="40" width="380" height="70" as="geometry"/>
                </mxCell>
                <mxCell id="108" value="&lt;div style=&quot;color: rgb(218, 218, 218); background-color: rgb(30, 30, 30); font-family: &amp;quot;Droid Sans Mono&amp;quot;, &amp;quot;monospace&amp;quot;, monospace; font-size: 14px; line-height: 19px;&quot;&gt;  &lt;span style=&quot;color: #d8a0df;&quot;&gt;return&lt;/span&gt; &lt;span style=&quot;color: #c8c8c8;&quot;&gt;std&lt;/span&gt;&lt;span style=&quot;color: #b4b4b4;&quot;&gt;::&lt;/span&gt;&lt;span style=&quot;color: #4ec9b0;&quot;&gt;unique_ptr&lt;/span&gt;&lt;span style=&quot;color: #b4b4b4;&quot;&gt;&amp;lt;&lt;/span&gt;&lt;span style=&quot;color: #4ec9b0;&quot;&gt;StateInputCost&lt;/span&gt;&lt;span style=&quot;color: #b4b4b4;&quot;&gt;&amp;gt;&lt;/span&gt;&lt;/div&gt;&lt;div style=&quot;color: rgb(218, 218, 218); background-color: rgb(30, 30, 30); font-family: &amp;quot;Droid Sans Mono&amp;quot;, &amp;quot;monospace&amp;quot;, monospace; font-size: 14px; line-height: 19px;&quot;&gt;&lt;span style=&quot;color: #b4b4b4;&quot;&gt;(&lt;/span&gt;&lt;span style=&quot;color: #569cd6;&quot;&gt;new&lt;/span&gt; &lt;span style=&quot;color: #4ec9b0;&quot;&gt;LeggedRobotStateInputQuadraticCost&lt;/span&gt;&lt;/div&gt;&lt;div style=&quot;color: rgb(218, 218, 218); background-color: rgb(30, 30, 30); font-family: &amp;quot;Droid Sans Mono&amp;quot;, &amp;quot;monospace&amp;quot;, monospace; font-size: 14px; line-height: 19px;&quot;&gt;&lt;span style=&quot;color: #b4b4b4;&quot;&gt;(&lt;/span&gt;&lt;span style=&quot;color: #c8c8c8;&quot;&gt;std&lt;/span&gt;&lt;span style=&quot;color: #b4b4b4;&quot;&gt;::&lt;/span&gt;&lt;span style=&quot;color: #dcdcaa;&quot;&gt;move&lt;/span&gt;&lt;span style=&quot;color: #b4b4b4;&quot;&gt;(&lt;/span&gt;&lt;span style=&quot;color: #9cdcfe;&quot;&gt;Q&lt;/span&gt;&lt;span style=&quot;color: #b4b4b4;&quot;&gt;),&lt;/span&gt; &lt;span style=&quot;color: #c8c8c8;&quot;&gt;std&lt;/span&gt;&lt;span style=&quot;color: #b4b4b4;&quot;&gt;::&lt;/span&gt;&lt;span style=&quot;color: #dcdcaa;&quot;&gt;move&lt;/span&gt;&lt;span style=&quot;color: #b4b4b4;&quot;&gt;(&lt;/span&gt;&lt;span style=&quot;color: #9cdcfe;&quot;&gt;R&lt;/span&gt;&lt;span style=&quot;color: #b4b4b4;&quot;&gt;),&lt;/span&gt;&amp;nbsp;&lt;/div&gt;&lt;div style=&quot;color: rgb(218, 218, 218); background-color: rgb(30, 30, 30); font-family: &amp;quot;Droid Sans Mono&amp;quot;, &amp;quot;monospace&amp;quot;, monospace; font-size: 14px; line-height: 19px;&quot;&gt;&lt;span style=&quot;color: #9a9a9a;&quot;&gt;info&lt;/span&gt;&lt;span style=&quot;color: #b4b4b4;&quot;&gt;,&lt;/span&gt; &lt;span style=&quot;color: #b4b4b4;&quot;&gt;*&lt;/span&gt;referenceManagerPtr_&lt;span style=&quot;color: #b4b4b4;&quot;&gt;,&lt;/span&gt; &lt;span style=&quot;color: #9a9a9a;&quot;&gt;taskFile&lt;/span&gt;&lt;span style=&quot;color: #b4b4b4;&quot;&gt;));&lt;/span&gt;&lt;/div&gt;" style="text;html=1;align=left;verticalAlign=middle;resizable=0;points=[];autosize=1;strokeColor=none;fillColor=none;fontColor=#FFFFFF;" vertex="1" parent="100">
                    <mxGeometry y="110" width="360" height="90" as="geometry"/>
                </mxCell>
                <mxCell id="109" value="&lt;div style=&quot;color: rgb(218, 218, 218); background-color: rgb(30, 30, 30); font-family: &amp;quot;Droid Sans Mono&amp;quot;, &amp;quot;monospace&amp;quot;, monospace; font-weight: normal; font-size: 14px; line-height: 19px;&quot;&gt;&lt;span style=&quot;color: #4ec9b0;&quot;&gt;LeggedRobotStateInputQuadraticCost&lt;/span&gt;&lt;span style=&quot;color: #b4b4b4;&quot;&gt;::&lt;/span&gt;&lt;/div&gt;&lt;div style=&quot;color: rgb(218, 218, 218); background-color: rgb(30, 30, 30); font-family: &amp;quot;Droid Sans Mono&amp;quot;, &amp;quot;monospace&amp;quot;, monospace; font-weight: normal; font-size: 14px; line-height: 19px;&quot;&gt;&lt;span style=&quot;color: #dcdcaa;&quot;&gt;LeggedRobotStateInputQuadraticCost&lt;/span&gt;&lt;/div&gt;" style="swimlane;whiteSpace=wrap;html=1;fontColor=#FFFFFF;" vertex="1" parent="67">
                    <mxGeometry x="40" y="780" width="460" height="300" as="geometry"/>
                </mxCell>
                <mxCell id="110" value="&lt;div style=&quot;color: rgb(218, 218, 218); background-color: rgb(30, 30, 30); font-family: &amp;quot;Droid Sans Mono&amp;quot;, &amp;quot;monospace&amp;quot;, monospace; font-size: 14px; line-height: 19px;&quot;&gt;&lt;br&gt;&lt;/div&gt;" style="text;html=1;align=left;verticalAlign=middle;resizable=0;points=[];autosize=1;strokeColor=none;fillColor=none;fontColor=#FFFFFF;" vertex="1" parent="109">
                    <mxGeometry y="60" width="20" height="30" as="geometry"/>
                </mxCell>
                <mxCell id="111" value="&lt;div style=&quot;color: rgb(218, 218, 218); background-color: rgb(30, 30, 30); font-family: &amp;quot;Droid Sans Mono&amp;quot;, &amp;quot;monospace&amp;quot;, monospace; font-size: 14px; line-height: 19px;&quot;&gt;&lt;br&gt;&lt;/div&gt;" style="text;html=1;align=left;verticalAlign=middle;resizable=0;points=[];autosize=1;strokeColor=none;fillColor=none;fontColor=#FFFFFF;" vertex="1" parent="109">
                    <mxGeometry y="140" width="20" height="30" as="geometry"/>
                </mxCell>
                <mxCell id="69" value="parameter" style="swimlane;whiteSpace=wrap;html=1;fontColor=#00FF00;" vertex="1" parent="1">
                    <mxGeometry x="120" y="50" width="700" height="200" as="geometry"/>
                </mxCell>
                <mxCell id="70" value="&lt;div style=&quot;color: rgb(218, 218, 218); background-color: rgb(30, 30, 30); font-family: &amp;quot;Droid Sans Mono&amp;quot;, &amp;quot;monospace&amp;quot;, monospace; font-size: 14px; line-height: 19px;&quot;&gt;&lt;div style=&quot;line-height: 19px;&quot;&gt;&lt;span style=&quot;color: #9cdcfe;&quot;&gt;targetFramesNames: arm1_8; dagana_2_tcp&lt;/span&gt;&lt;/div&gt;&lt;/div&gt;" style="text;html=1;align=center;verticalAlign=middle;resizable=0;points=[];autosize=1;strokeColor=none;fillColor=none;fontColor=#00FF00;" vertex="1" parent="69">
                    <mxGeometry x="10" y="70" width="350" height="30" as="geometry"/>
                </mxCell>
                <mxCell id="77" value="sources" style="swimlane;whiteSpace=wrap;html=1;fontColor=#00FF00;" vertex="1" parent="1">
                    <mxGeometry x="1550" y="360" width="1365" height="440" as="geometry"/>
                </mxCell>
                <mxCell id="78" value="&lt;div style=&quot;color: rgb(218, 218, 218); background-color: rgb(30, 30, 30); font-family: &amp;quot;Droid Sans Mono&amp;quot;, &amp;quot;monospace&amp;quot;, monospace; font-size: 14px; line-height: 19px;&quot;&gt;&lt;span style=&quot;color: #4ec9b0;&quot;&gt;LeggedRobotInterface&lt;/span&gt; &lt;span style=&quot;color: #9cdcfe;&quot;&gt;interface&lt;/span&gt;&lt;span style=&quot;color: #b4b4b4;&quot;&gt;(&lt;/span&gt;&lt;span style=&quot;color: #9cdcfe;&quot;&gt;taskFile&lt;/span&gt;&lt;span style=&quot;color: #b4b4b4;&quot;&gt;,&lt;/span&gt; &lt;span style=&quot;color: #9cdcfe;&quot;&gt;urdfFile&lt;/span&gt;&lt;span style=&quot;color: #b4b4b4;&quot;&gt;,&lt;/span&gt; &lt;span style=&quot;color: #9cdcfe;&quot;&gt;referenceFile&lt;/span&gt;&lt;span style=&quot;color: #b4b4b4;&quot;&gt;);&lt;/span&gt;&lt;/div&gt;" style="text;html=1;align=center;verticalAlign=middle;resizable=0;points=[];autosize=1;strokeColor=none;fillColor=none;fontColor=#00FF00;" vertex="1" parent="77">
                    <mxGeometry y="60" width="580" height="30" as="geometry"/>
                </mxCell>
                <mxCell id="79" value="&lt;div style=&quot;color: rgb(218, 218, 218); background-color: rgb(30, 30, 30); font-family: &amp;quot;Droid Sans Mono&amp;quot;, &amp;quot;monospace&amp;quot;, monospace; font-size: 14px; line-height: 19px;&quot;&gt;&lt;span style=&quot;color: #c8c8c8;&quot;&gt;xbot_interface&lt;/span&gt;&lt;span style=&quot;color: #b4b4b4;&quot;&gt;::&lt;/span&gt;&lt;span style=&quot;color: #4ec9b0;&quot;&gt;XbotInterface&lt;/span&gt; &lt;span style=&quot;color: #9cdcfe;&quot;&gt;xbotInterface&lt;/span&gt;&lt;/div&gt;" style="text;html=1;align=center;verticalAlign=middle;resizable=0;points=[];autosize=1;strokeColor=none;fillColor=none;fontColor=#00FF00;" vertex="1" parent="77">
                    <mxGeometry y="90" width="390" height="30" as="geometry"/>
                </mxCell>
                <mxCell id="80" value="&lt;div style=&quot;color: rgb(218, 218, 218); background-color: rgb(30, 30, 30); font-family: &amp;quot;Droid Sans Mono&amp;quot;, &amp;quot;monospace&amp;quot;, monospace; font-size: 14px; line-height: 19px;&quot;&gt;&lt;div&gt;  &lt;span style=&quot;color: #569cd6;&quot;&gt;auto&lt;/span&gt; &lt;span style=&quot;color: #9cdcfe;&quot;&gt;gaitReceiverPtr&lt;/span&gt; &lt;span style=&quot;color: #b4b4b4;&quot;&gt;=&amp;nbsp;&lt;/span&gt;&lt;span style=&quot;color: rgb(200, 200, 200);&quot;&gt;std&lt;/span&gt;&lt;span style=&quot;color: rgb(180, 180, 180);&quot;&gt;::&lt;/span&gt;&lt;span style=&quot;color: rgb(220, 220, 170);&quot;&gt;make_shared&lt;/span&gt;&lt;span style=&quot;color: rgb(180, 180, 180);&quot;&gt;&amp;lt;&lt;/span&gt;&lt;span style=&quot;color: rgb(78, 201, 176);&quot;&gt;GaitReceiver&lt;/span&gt;&lt;span style=&quot;color: rgb(180, 180, 180);&quot;&gt;&amp;gt;(&lt;/span&gt;&lt;span style=&quot;color: rgb(156, 220, 254);&quot;&gt;nodeHandle&lt;/span&gt;&lt;span style=&quot;color: rgb(180, 180, 180);&quot;&gt;,&lt;/span&gt; &lt;span style=&quot;color: rgb(156, 220, 254);&quot;&gt;interface&lt;/span&gt;&lt;span style=&quot;color: rgb(180, 180, 180);&quot;&gt;.&lt;/span&gt;&lt;span style=&quot;color: rgb(220, 220, 170);&quot;&gt;getSwitchedModelReferenceManagerPtr&lt;/span&gt;&lt;span style=&quot;color: rgb(180, 180, 180);&quot;&gt;()-&amp;gt;&lt;/span&gt;&lt;span style=&quot;color: rgb(220, 220, 170);&quot;&gt;getGaitSchedule&lt;/span&gt;&lt;span style=&quot;color: rgb(180, 180, 180);&quot;&gt;(),&lt;/span&gt; &lt;span style=&quot;color: rgb(156, 220, 254);&quot;&gt;robotName&lt;/span&gt;&lt;span style=&quot;color: rgb(180, 180, 180);&quot;&gt;)&lt;/span&gt;&lt;/div&gt;&lt;/div&gt;" style="text;html=1;align=center;verticalAlign=middle;resizable=0;points=[];autosize=1;strokeColor=none;fillColor=none;fontColor=#00FF00;" vertex="1" parent="77">
                    <mxGeometry y="130" width="1240" height="30" as="geometry"/>
                </mxCell>
                <mxCell id="81" value="&lt;div style=&quot;color: rgb(218, 218, 218); background-color: rgb(30, 30, 30); font-family: &amp;quot;Droid Sans Mono&amp;quot;, &amp;quot;monospace&amp;quot;, monospace; font-size: 14px; line-height: 19px;&quot;&gt;  &lt;span style=&quot;color: #569cd6;&quot;&gt;auto&lt;/span&gt; &lt;span style=&quot;color: #9cdcfe;&quot;&gt;rosReferenceManagerPtr&lt;/span&gt; &lt;span style=&quot;color: #b4b4b4;&quot;&gt;=&lt;/span&gt; &lt;span style=&quot;color: #c8c8c8;&quot;&gt;std&lt;/span&gt;&lt;span style=&quot;color: #b4b4b4;&quot;&gt;::&lt;/span&gt;&lt;span style=&quot;color: #dcdcaa;&quot;&gt;make_shared&lt;/span&gt;&lt;span style=&quot;color: #b4b4b4;&quot;&gt;&amp;lt;&lt;/span&gt;&lt;span style=&quot;color: #4ec9b0;&quot;&gt;RosReferenceManager&lt;/span&gt;&lt;span style=&quot;color: #b4b4b4;&quot;&gt;&amp;gt;(&lt;/span&gt;&lt;span style=&quot;color: #9cdcfe;&quot;&gt;robotName&lt;/span&gt;&lt;span style=&quot;color: #b4b4b4;&quot;&gt;,&lt;/span&gt; &lt;span style=&quot;color: #9cdcfe;&quot;&gt;interface&lt;/span&gt;&lt;span style=&quot;color: #b4b4b4;&quot;&gt;.&lt;/span&gt;&lt;span style=&quot;color: #dcdcaa;&quot;&gt;getReferenceManagerPtr&lt;/span&gt;&lt;span style=&quot;color: #b4b4b4;&quot;&gt;());&lt;/span&gt;&lt;/div&gt;" style="text;html=1;align=center;verticalAlign=middle;resizable=0;points=[];autosize=1;strokeColor=none;fillColor=none;fontColor=#00FF00;" vertex="1" parent="77">
                    <mxGeometry y="160" width="990" height="30" as="geometry"/>
                </mxCell>
                <mxCell id="82" value="&lt;div style=&quot;color: rgb(218, 218, 218); background-color: rgb(30, 30, 30); font-family: &amp;quot;Droid Sans Mono&amp;quot;, &amp;quot;monospace&amp;quot;, monospace; font-size: 14px; line-height: 19px;&quot;&gt;&lt;div&gt;  GaussNewtonDDP_MPC &lt;span style=&quot;color: #9cdcfe;&quot;&gt;mpc&lt;/span&gt;&lt;span style=&quot;color: #b4b4b4;&quot;&gt;(&lt;/span&gt;&lt;span style=&quot;color: #9cdcfe;&quot;&gt;interface&lt;/span&gt;&lt;span style=&quot;color: #b4b4b4;&quot;&gt;.&lt;/span&gt;&lt;span style=&quot;color: #dcdcaa;&quot;&gt;mpcSettings&lt;/span&gt;&lt;span style=&quot;color: #b4b4b4;&quot;&gt;(),&lt;/span&gt; &lt;span style=&quot;color: #9cdcfe;&quot;&gt;interface&lt;/span&gt;&lt;span style=&quot;color: #b4b4b4;&quot;&gt;.&lt;/span&gt;&lt;span style=&quot;color: #dcdcaa;&quot;&gt;ddpSettings&lt;/span&gt;&lt;span style=&quot;color: #b4b4b4;&quot;&gt;(),&lt;/span&gt; &lt;span style=&quot;color: #9cdcfe;&quot;&gt;interface&lt;/span&gt;&lt;span style=&quot;color: #b4b4b4;&quot;&gt;.&lt;/span&gt;&lt;span style=&quot;color: #dcdcaa;&quot;&gt;getRollout&lt;/span&gt;&lt;span style=&quot;color: #b4b4b4;&quot;&gt;(),&lt;/span&gt; &lt;span style=&quot;color: #9cdcfe;&quot;&gt;interface&lt;/span&gt;&lt;span style=&quot;color: #b4b4b4;&quot;&gt;.&lt;/span&gt;&lt;span style=&quot;color: #dcdcaa;&quot;&gt;getOptimalControlProblem&lt;/span&gt;&lt;span style=&quot;color: #b4b4b4;&quot;&gt;(),&lt;/span&gt;&lt;/div&gt;&lt;div&gt;                         &lt;span style=&quot;color: #9cdcfe;&quot;&gt;interface&lt;/span&gt;&lt;span style=&quot;color: #b4b4b4;&quot;&gt;.&lt;/span&gt;&lt;span style=&quot;color: #dcdcaa;&quot;&gt;getInitializer&lt;/span&gt;&lt;span style=&quot;color: #b4b4b4;&quot;&gt;());&lt;/span&gt;&lt;/div&gt;&lt;/div&gt;" style="text;html=1;align=center;verticalAlign=middle;resizable=0;points=[];autosize=1;strokeColor=none;fillColor=none;fontColor=#00FF00;" vertex="1" parent="77">
                    <mxGeometry x="5" y="190" width="1150" height="50" as="geometry"/>
                </mxCell>
                <mxCell id="83" value="&lt;div style=&quot;background-color: rgb(30, 30, 30); line-height: 19px; font-size: 14px; font-family: &amp;quot;Droid Sans Mono&amp;quot;, &amp;quot;monospace&amp;quot;, monospace; color: rgb(218, 218, 218);&quot;&gt;&lt;div&gt;      &lt;span style=&quot;color: #569cd6;&quot;&gt;auto&lt;/span&gt; &lt;span style=&quot;color: #9cdcfe;&quot;&gt;wrenchesReceiverPtr&lt;/span&gt; &lt;span style=&quot;color: #b4b4b4;&quot;&gt;=&amp;nbsp;&lt;/span&gt;&lt;span style=&quot;color: rgb(200, 200, 200);&quot;&gt;std&lt;/span&gt;&lt;span style=&quot;color: rgb(180, 180, 180);&quot;&gt;::&lt;/span&gt;&lt;span style=&quot;color: rgb(220, 220, 170);&quot;&gt;make_shared&lt;/span&gt;&lt;span style=&quot;color: rgb(180, 180, 180);&quot;&gt;&amp;lt;&lt;/span&gt;&lt;span style=&quot;color: rgb(78, 201, 176);&quot;&gt;EstimatedWrenchReceiver&lt;/span&gt;&lt;span style=&quot;color: rgb(180, 180, 180);&quot;&gt;&amp;gt;(&lt;/span&gt;&lt;span style=&quot;color: rgb(156, 220, 254);&quot;&gt;nodeHandle&lt;/span&gt;&lt;span style=&quot;color: rgb(180, 180, 180);&quot;&gt;,&lt;/span&gt; &lt;span style=&quot;color: rgb(156, 220, 254);&quot;&gt;interface&lt;/span&gt;&lt;span style=&quot;color: rgb(180, 180, 180);&quot;&gt;.&lt;/span&gt;&lt;span style=&quot;color: rgb(220, 220, 170);&quot;&gt;getSwitchedModelReferenceManagerPtr&lt;/span&gt;&lt;span style=&quot;color: rgb(180, 180, 180);&quot;&gt;()-&amp;gt;&lt;/span&gt;&lt;span style=&quot;color: rgb(220, 220, 170);&quot;&gt;getForceTorqueSensingPtr&lt;/span&gt;&lt;span style=&quot;color: rgb(180, 180, 180);&quot;&gt;());&lt;/span&gt;&lt;/div&gt;&lt;/div&gt;" style="text;html=1;align=center;verticalAlign=middle;resizable=0;points=[];autosize=1;strokeColor=none;fillColor=none;fontColor=#00FF00;" vertex="1" parent="77">
                    <mxGeometry x="5" y="230" width="1360" height="30" as="geometry"/>
                </mxCell>
                <mxCell id="84" value="&lt;div style=&quot;color: rgb(218, 218, 218); background-color: rgb(30, 30, 30); font-family: &amp;quot;Droid Sans Mono&amp;quot;, &amp;quot;monospace&amp;quot;, monospace; font-size: 14px; line-height: 19px;&quot;&gt;&lt;div&gt;      &lt;span style=&quot;color: #569cd6;&quot;&gt;auto&lt;/span&gt; &lt;span style=&quot;color: #9cdcfe;&quot;&gt;jointStatesReceiverPtr&lt;/span&gt; &lt;span style=&quot;color: #b4b4b4;&quot;&gt;=&amp;nbsp;&lt;/span&gt;&lt;span style=&quot;color: rgb(200, 200, 200);&quot;&gt;std&lt;/span&gt;&lt;span style=&quot;color: rgb(180, 180, 180);&quot;&gt;::&lt;/span&gt;&lt;span style=&quot;color: rgb(220, 220, 170);&quot;&gt;make_shared&lt;/span&gt;&lt;span style=&quot;color: rgb(180, 180, 180);&quot;&gt;&amp;lt;&lt;/span&gt;&lt;span style=&quot;color: rgb(78, 201, 176);&quot;&gt;JointStatesReceiver&lt;/span&gt;&lt;span style=&quot;color: rgb(180, 180, 180);&quot;&gt;&amp;gt;(&lt;/span&gt;&lt;span style=&quot;color: rgb(156, 220, 254);&quot;&gt;nodeHandle&lt;/span&gt;&lt;span style=&quot;color: rgb(180, 180, 180);&quot;&gt;,&lt;/span&gt; &lt;span style=&quot;color: rgb(156, 220, 254);&quot;&gt;interface&lt;/span&gt;&lt;span style=&quot;color: rgb(180, 180, 180);&quot;&gt;.&lt;/span&gt;&lt;span style=&quot;color: rgb(220, 220, 170);&quot;&gt;getSwitchedModelReferenceManagerPtr&lt;/span&gt;&lt;span style=&quot;color: rgb(180, 180, 180);&quot;&gt;()-&amp;gt;&lt;/span&gt;&lt;span style=&quot;color: rgb(220, 220, 170);&quot;&gt;getForceTorqueSensingPtr&lt;/span&gt;&lt;span style=&quot;color: rgb(180, 180, 180);&quot;&gt;());&lt;/span&gt;&lt;/div&gt;&lt;/div&gt;" style="text;html=1;align=center;verticalAlign=middle;resizable=0;points=[];autosize=1;strokeColor=none;fillColor=none;fontColor=#00FF00;" vertex="1" parent="77">
                    <mxGeometry x="5" y="270" width="1350" height="30" as="geometry"/>
                </mxCell>
            </root>
        </mxGraphModel>
    </diagram>
    <diagram id="fG7R4x4j5o49QxJMcLNm" name="Page-1">
        <mxGraphModel dx="583" dy="370" grid="1" gridSize="10" guides="1" tooltips="1" connect="1" arrows="1" fold="1" page="1" pageScale="1" pageWidth="850" pageHeight="1100" math="0" shadow="0">
            <root>
                <mxCell id="0"/>
                <mxCell id="1" parent="0"/>
            </root>
        </mxGraphModel>
    </diagram>
</mxfile>